<svg width="23" height="21" viewBox="0 0 23 21" fill="none" xmlns="http://www.w3.org/2000/svg">
<g clip-path="url(#clip0_1_2)">
<path d="M11.5 12.2817C12.6322 12.2817 13.55 11.3639 13.55 10.2317C13.55 9.09955 12.6322 8.18173 11.5 8.18173C10.3678 8.18173 9.45001 9.09955 9.45001 10.2317C9.45001 11.3639 10.3678 12.2817 11.5 12.2817Z" fill="#C20505"/>
<path d="M11.5 14.4317C17.5751 14.4317 22.5 12.5513 22.5 10.2317C22.5 7.91214 17.5751 6.03174 11.5 6.03174C5.42487 6.03174 0.5 7.91214 0.5 10.2317C0.5 12.5513 5.42487 14.4317 11.5 14.4317Z" stroke="#C20505"/>
<path d="M7.86269 12.3317C10.9003 17.593 14.9912 20.9178 17 19.758C19.0088 18.5982 18.1749 13.393 15.1373 8.13173C12.0997 2.87051 8.00882 -0.454345 5.99999 0.705453C3.99116 1.86525 4.82512 7.07051 7.86269 12.3317Z" stroke="#C20505"/>
<path d="M7.86269 8.13173C4.82512 13.3929 3.99116 18.5982 5.99999 19.758C8.00882 20.9178 12.0997 17.5929 15.1373 12.3317C18.1749 7.07051 19.0088 1.86525 17 0.705451C14.9912 -0.454348 10.9003 2.87051 7.86269 8.13173Z" stroke="#C20505"/>
</g>
<defs>
<clipPath id="clip0_1_2">
<rect width="23" height="20.4635" fill="white"/>
</clipPath>
</defs>
</svg>
